<?xml version="1.0" encoding="iso-8859-1"?>
<!DOCTYPE note
[
<!ELEMENT note (svg,g,path,polygon)>
<!ELEMENT svg (#PCDATA)>
<!ELEMENT g (#PCDATA)>
<!ELEMENT path (#PCDATA)>
<!ELEMENT polygon (#PCDATA)>
]>

<!-- Generator: Adobe Illustrator 19.0.0, SVG Export Plug-In . SVG Version: 6.00 Build 0)  -->
<svg version="1.1" id="Layer_1" xmlns="http://www.w3.org/2000/svg" xmlns:xlink="http://www.w3.org/1999/xlink" x="0px" y="0px"
	 viewBox="0 0 503.467 503.467" style="enable-background:new 0 0 503.467 503.467;" xml:space="preserve">
<g transform="translate(5 1)">
	<path style="fill:#AAB1BA;" d="M280.867,71.533c-18.773,0-34.133-15.36-34.133-34.133s15.36-34.133,34.133-34.133
		C299.64,3.267,315,18.627,315,37.4S299.64,71.533,280.867,71.533"/>
	<g>
		<path style="fill:#FF7474;" d="M374.733,481.133c0,9.387-7.68,17.067-17.067,17.067h-153.6c-9.387,0-17.067-7.68-17.067-17.067
			v-307.2c0-36.693,20.48-68.267,51.2-83.627c0,0,17.067-10.24,42.667-10.24s42.667,10.24,42.667,10.24
			c30.72,15.36,51.2,46.933,51.2,83.627V481.133z"/>
		<path style="fill:#FF7474;" d="M93.133,267.8l8.533,128H33.4l8.533-128c0.853-14.507,11.093-25.6,25.6-25.6
			S92.28,254.147,93.133,267.8"/>
	</g>
	<polygon style="fill:#ECF4F7;" points="238.2,395.8 374.733,395.8 374.733,225.133 238.2,225.133 	"/>
</g>
<path style="fill:#51565F;" d="M362.667,503.467h-153.6c-11.947,0-21.333-9.387-21.333-21.333v-307.2
	c0-36.693,20.48-69.973,52.907-87.04c1.707-0.853,4.267,0,5.973,1.707c0.853,1.707,0,4.267-1.707,5.973
	c-29.867,15.36-48.64,46.08-48.64,79.36v307.2c0,6.827,5.973,12.8,12.8,12.8h153.6c6.827,0,12.8-5.973,12.8-12.8v-307.2
	c0-33.28-18.773-64-48.64-79.36c-1.707-0.853-2.56-3.413-1.707-5.973c0.853-1.707,3.413-2.56,5.973-1.707
	C364.373,104.96,384,138.24,384,174.933v307.2C384,494.08,374.613,503.467,362.667,503.467z M345.6,401.067H243.2
	c-2.56,0-4.267-1.707-4.267-4.267V226.133c0-2.56,1.707-4.267,4.267-4.267h102.4c2.56,0,4.267,1.707,4.267,4.267
	s-1.707,4.267-4.267,4.267h-98.133v162.133H345.6c2.56,0,4.267,1.707,4.267,4.267S348.16,401.067,345.6,401.067z M106.667,401.067
	H38.4c-0.853,0-2.56-0.853-3.413-1.707c-0.853-0.853-0.853-1.707-0.853-3.413l8.533-128c0.853-15.36,11.947-27.307,25.6-29.013
	v-38.4c0-98.133,61.44-166.4,149.333-166.4c2.56,0,4.267,1.707,4.267,4.267s-1.707,4.267-4.267,4.267
	c-82.773,0-140.8,64.853-140.8,157.867v38.4c13.653,1.707,24.747,13.653,25.6,29.013l8.533,128c0,0.853,0,2.56-0.853,3.413
	C109.227,400.213,107.52,401.067,106.667,401.067z M42.667,392.533h58.88L93.013,268.8c-0.853-11.947-10.24-21.333-21.333-21.333
	c-11.947,0-20.48,9.387-21.333,21.333L42.667,392.533z M345.6,332.8h-51.2c-2.56,0-4.267-1.707-4.267-4.267
	c0-2.56,1.707-4.267,4.267-4.267h51.2c2.56,0,4.267,1.707,4.267,4.267C349.867,331.093,348.16,332.8,345.6,332.8z M345.6,298.667
	h-51.2c-2.56,0-4.267-1.707-4.267-4.267c0-2.56,1.707-4.267,4.267-4.267h51.2c2.56,0,4.267,1.707,4.267,4.267
	C349.867,296.96,348.16,298.667,345.6,298.667z M396.8,76.8c-0.853,0-1.707,0-2.56-0.853l-42.667-34.133
	c-1.707-0.853-1.707-3.413-1.707-5.12c0-1.707,2.56-2.56,4.267-2.56h110.933c2.56,0,4.267,1.707,4.267,4.267
	s-1.707,4.267-4.267,4.267H366.08l33.28,26.453c1.707,1.707,2.56,4.267,0.853,5.973C399.36,75.947,397.653,76.8,396.8,76.8z
	 M285.867,76.8c-21.333,0-38.4-17.067-38.4-38.4S264.533,0,285.867,0c21.333,0,38.4,17.067,38.4,38.4S307.2,76.8,285.867,76.8z
	 M285.867,8.533C269.653,8.533,256,22.187,256,38.4c0,15.36,11.093,27.307,25.6,29.867V38.4c0-2.56,1.707-4.267,4.267-4.267
	s4.267,1.707,4.267,4.267v29.867c14.507-1.707,25.6-14.507,25.6-29.867C315.733,22.187,302.08,8.533,285.867,8.533z"/>
</svg>
